<svg xmlns="http://www.w3.org/2000/svg" viewBox="0 0 64 64" width="64" height="64">
<polygon points="5.91,50.57 5.00,56.00 8.94,52.68 9.56,49.00" fill="#81b1e6" stroke="#81b1e6" stroke-width="0.6" stroke-linejoin="round"/>
<polygon points="7.45,50.44 7.31,50.47 7.19,51.18 7.33,51.14" fill="#8ec0f5" stroke="#8ec0f5" stroke-width="0.6" stroke-linejoin="round"/>
<polygon points="7.62,50.41 7.45,50.44 7.33,51.14 7.50,51.11" fill="#8ec0f5" stroke="#8ec0f5" stroke-width="0.6" stroke-linejoin="round"/>
<polygon points="7.82,50.37 7.62,50.41 7.50,51.11 7.70,51.07" fill="#8ec0f5" stroke="#8ec0f5" stroke-width="0.6" stroke-linejoin="round"/>
<polygon points="8.04,50.32 7.82,50.37 7.70,51.07 7.92,51.02" fill="#8ebff5" stroke="#8ebff5" stroke-width="0.6" stroke-linejoin="round"/>
<polygon points="8.28,50.28 8.04,50.32 7.92,51.02 8.16,50.98" fill="#8ebff5" stroke="#8ebff5" stroke-width="0.6" stroke-linejoin="round"/>
<polygon points="8.54,50.23 8.28,50.28 8.16,50.98 8.42,50.93" fill="#8ebff5" stroke="#8ebff5" stroke-width="0.6" stroke-linejoin="round"/>
<polygon points="8.81,50.17 8.54,50.23 8.42,50.93 8.70,50.87" fill="#8ec0f5" stroke="#8ec0f5" stroke-width="0.6" stroke-linejoin="round"/>
<polygon points="9.10,50.11 8.81,50.17 8.70,50.87 8.98,50.81" fill="#8ec0f5" stroke="#8ec0f5" stroke-width="0.6" stroke-linejoin="round"/>
<polygon points="9.39,50.05 9.10,50.11 8.98,50.81 9.27,50.75" fill="#8ec0f5" stroke="#8ec0f5" stroke-width="0.6" stroke-linejoin="round"/>
<polygon points="9.68,49.98 9.39,50.05 9.27,50.75 9.56,50.68" fill="#8ec0f5" stroke="#8ec0f5" stroke-width="0.6" stroke-linejoin="round"/>
<polygon points="9.97,49.91 9.68,49.98 9.56,50.68 9.85,50.61" fill="#8ec0f5" stroke="#8ec0f5" stroke-width="0.6" stroke-linejoin="round"/>
<polygon points="10.26,49.83 9.97,49.91 9.85,50.61 10.14,50.54" fill="#8ec0f5" stroke="#8ec0f5" stroke-width="0.6" stroke-linejoin="round"/>
<polygon points="10.54,49.75 10.26,49.83 10.14,50.54 10.42,50.45" fill="#8ec0f5" stroke="#8ec0f5" stroke-width="0.6" stroke-linejoin="round"/>
<polygon points="10.81,49.66 10.54,49.75 10.42,50.45 10.69,50.37" fill="#8ec0f6" stroke="#8ec0f6" stroke-width="0.6" stroke-linejoin="round"/>
<polygon points="11.07,49.57 10.81,49.66 10.69,50.37 10.95,50.27" fill="#8ec0f6" stroke="#8ec0f6" stroke-width="0.6" stroke-linejoin="round"/>
<polygon points="11.31,49.47 11.07,49.57 10.95,50.27 11.19,50.17" fill="#8ec0f5" stroke="#8ec0f5" stroke-width="0.6" stroke-linejoin="round"/>
<polygon points="11.54,49.37 11.31,49.47 11.19,50.17 11.42,50.07" fill="#8ec0f5" stroke="#8ec0f5" stroke-width="0.6" stroke-linejoin="round"/>
<polygon points="11.76,49.26 11.54,49.37 11.42,50.07 11.65,49.97" fill="#8ec0f5" stroke="#8ec0f5" stroke-width="0.6" stroke-linejoin="round"/>
<polygon points="11.99,49.16 11.76,49.26 11.65,49.97 11.87,49.86" fill="#8ec0f5" stroke="#8ec0f5" stroke-width="0.6" stroke-linejoin="round"/>
<polygon points="12.21,49.04 11.99,49.16 11.87,49.86 12.09,49.74" fill="#8ec0f5" stroke="#8ec0f5" stroke-width="0.6" stroke-linejoin="round"/>
<polygon points="12.43,48.93 12.21,49.04 12.09,49.74 12.31,49.63" fill="#8ebff5" stroke="#8ebff5" stroke-width="0.6" stroke-linejoin="round"/>
<polygon points="12.65,48.80 12.43,48.93 12.31,49.63 12.53,49.51" fill="#8dbff4" stroke="#8dbff4" stroke-width="0.6" stroke-linejoin="round"/>
<polygon points="12.86,48.68 12.65,48.80 12.53,49.51 12.74,49.38" fill="#8dbff4" stroke="#8dbff4" stroke-width="0.6" stroke-linejoin="round"/>
<polygon points="13.07,48.55 12.86,48.68 12.74,49.38 12.95,49.25" fill="#8dbff4" stroke="#8dbff4" stroke-width="0.6" stroke-linejoin="round"/>
<polygon points="13.28,48.41 13.07,48.55 12.95,49.25 13.16,49.11" fill="#8cbef3" stroke="#8cbef3" stroke-width="0.6" stroke-linejoin="round"/>
<polygon points="13.49,48.26 13.28,48.41 13.16,49.11 13.37,48.96" fill="#8cbef3" stroke="#8cbef3" stroke-width="0.6" stroke-linejoin="round"/>
<polygon points="13.69,48.11 13.49,48.26 13.37,48.96 13.58,48.81" fill="#8cbdf2" stroke="#8cbdf2" stroke-width="0.6" stroke-linejoin="round"/>
<polygon points="13.90,47.95 13.69,48.11 13.58,48.81 13.78,48.65" fill="#8bbdf2" stroke="#8bbdf2" stroke-width="0.6" stroke-linejoin="round"/>
<polygon points="14.10,47.78 13.90,47.95 13.78,48.65 13.98,48.48" fill="#8abcf1" stroke="#8abcf1" stroke-width="0.6" stroke-linejoin="round"/>
<polygon points="14.29,47.61 14.10,47.78 13.98,48.48 14.17,48.31" fill="#8abbf0" stroke="#8abbf0" stroke-width="0.6" stroke-linejoin="round"/>
<polygon points="55.06,49.33 9.56,49.00 8.94,52.68 54.44,53.01" fill="#7fafe3" stroke="#7fafe3" stroke-width="0.6" stroke-linejoin="round"/>
<polygon points="14.49,47.42 14.29,47.61 14.17,48.31 14.37,48.12" fill="#89baef" stroke="#89baef" stroke-width="0.6" stroke-linejoin="round"/>
<polygon points="14.68,47.23 14.49,47.42 14.37,48.12 14.56,47.93" fill="#88b9ee" stroke="#88b9ee" stroke-width="0.6" stroke-linejoin="round"/>
<polygon points="14.87,47.03 14.68,47.23 14.56,47.93 14.75,47.73" fill="#87b8ed" stroke="#87b8ed" stroke-width="0.6" stroke-linejoin="round"/>
<polygon points="15.05,46.82 14.87,47.03 14.75,47.73 14.93,47.52" fill="#87b7ec" stroke="#87b7ec" stroke-width="0.6" stroke-linejoin="round"/>
<polygon points="15.22,46.61 15.05,46.82 14.93,47.52 15.10,47.31" fill="#86b6eb" stroke="#86b6eb" stroke-width="0.6" stroke-linejoin="round"/>
<polygon points="15.39,46.39 15.22,46.61 15.10,47.31 15.27,47.09" fill="#85b5ea" stroke="#85b5ea" stroke-width="0.6" stroke-linejoin="round"/>
<polygon points="15.55,46.17 15.39,46.39 15.27,47.09 15.44,46.87" fill="#84b4e9" stroke="#84b4e9" stroke-width="0.6" stroke-linejoin="round"/>
<polygon points="15.72,45.94 15.55,46.17 15.44,46.87 15.60,46.64" fill="#83b4e8" stroke="#83b4e8" stroke-width="0.6" stroke-linejoin="round"/>
<polygon points="15.88,45.70 15.72,45.94 15.60,46.64 15.76,46.40" fill="#82b3e7" stroke="#82b3e7" stroke-width="0.6" stroke-linejoin="round"/>
<polygon points="16.04,45.45 15.88,45.70 15.76,46.40 15.92,46.15" fill="#82b2e6" stroke="#82b2e6" stroke-width="0.6" stroke-linejoin="round"/>
<polygon points="16.20,45.19 16.04,45.45 15.92,46.15 16.08,45.89" fill="#81b1e6" stroke="#81b1e6" stroke-width="0.6" stroke-linejoin="round"/>
<polygon points="58.09,56.39 59.00,50.96 55.06,49.33 54.44,53.01" fill="#6d9acd" stroke="#6d9acd" stroke-width="0.6" stroke-linejoin="round"/>
<polygon points="16.36,44.93 16.20,45.19 16.08,45.89 16.24,45.63" fill="#81b1e5" stroke="#81b1e5" stroke-width="0.6" stroke-linejoin="round"/>
<polygon points="16.52,44.65 16.36,44.93 16.24,45.63 16.40,45.35" fill="#81b1e5" stroke="#81b1e5" stroke-width="0.6" stroke-linejoin="round"/>
<polygon points="16.69,44.37 16.52,44.65 16.40,45.35 16.57,45.07" fill="#80b0e5" stroke="#80b0e5" stroke-width="0.6" stroke-linejoin="round"/>
<polygon points="16.86,44.07 16.69,44.37 16.57,45.07 16.74,44.78" fill="#80b0e5" stroke="#80b0e5" stroke-width="0.6" stroke-linejoin="round"/>
<polygon points="56.81,50.83 56.69,50.74 56.57,51.44 56.69,51.54" fill="#719fd2" stroke="#719fd2" stroke-width="0.6" stroke-linejoin="round"/>
<polygon points="56.69,50.74 56.55,50.63 56.43,51.33 56.57,51.44" fill="#73a2d5" stroke="#73a2d5" stroke-width="0.6" stroke-linejoin="round"/>
<polygon points="56.55,50.63 56.38,50.51 56.26,51.21 56.43,51.33" fill="#75a3d6" stroke="#75a3d6" stroke-width="0.6" stroke-linejoin="round"/>
<polygon points="17.04,43.77 16.86,44.07 16.74,44.78 16.92,44.47" fill="#80b0e4" stroke="#80b0e4" stroke-width="0.6" stroke-linejoin="round"/>
<polygon points="56.38,50.51 56.19,50.38 56.07,51.08 56.26,51.21" fill="#75a4d7" stroke="#75a4d7" stroke-width="0.6" stroke-linejoin="round"/>
<polygon points="56.19,50.38 55.98,50.24 55.86,50.94 56.07,51.08" fill="#75a4d7" stroke="#75a4d7" stroke-width="0.6" stroke-linejoin="round"/>
<polygon points="55.98,50.24 55.76,50.08 55.64,50.78 55.86,50.94" fill="#75a3d7" stroke="#75a3d7" stroke-width="0.6" stroke-linejoin="round"/>
<polygon points="17.22,43.45 17.04,43.77 16.92,44.47 17.11,44.15" fill="#80b0e5" stroke="#80b0e5" stroke-width="0.6" stroke-linejoin="round"/>
<polygon points="55.76,50.08 55.53,49.92 55.41,50.62 55.64,50.78" fill="#74a3d6" stroke="#74a3d6" stroke-width="0.6" stroke-linejoin="round"/>
<polygon points="55.53,49.92 55.28,49.74 55.17,50.44 55.41,50.62" fill="#74a2d5" stroke="#74a2d5" stroke-width="0.6" stroke-linejoin="round"/>
<polygon points="55.28,49.74 55.04,49.55 54.92,50.25 55.17,50.44" fill="#73a1d4" stroke="#73a1d4" stroke-width="0.6" stroke-linejoin="round"/>
<polygon points="17.42,43.13 17.22,43.45 17.11,44.15 17.30,43.83" fill="#80b0e5" stroke="#80b0e5" stroke-width="0.6" stroke-linejoin="round"/>
<polygon points="55.04,49.55 54.79,49.35 54.67,50.05 54.92,50.25" fill="#719fd2" stroke="#719fd2" stroke-width="0.6" stroke-linejoin="round"/>
<polygon points="54.79,49.35 54.55,49.14 54.43,49.84 54.67,50.05" fill="#709ed1" stroke="#709ed1" stroke-width="0.6" stroke-linejoin="round"/>
<polygon points="17.62,42.79 17.42,43.13 17.30,43.83 17.50,43.49" fill="#80b0e5" stroke="#80b0e5" stroke-width="0.6" stroke-linejoin="round"/>
<polygon points="54.55,49.14 54.30,48.92 54.19,49.62 54.43,49.84" fill="#6e9cce" stroke="#6e9cce" stroke-width="0.6" stroke-linejoin="round"/>
<polygon points="54.30,48.92 54.07,48.69 53.95,49.39 54.19,49.62" fill="#6c99cc" stroke="#6c99cc" stroke-width="0.6" stroke-linejoin="round"/>
<polygon points="17.82,42.43 17.62,42.79 17.50,43.49 17.71,43.13" fill="#80b0e4" stroke="#80b0e4" stroke-width="0.6" stroke-linejoin="round"/>
<polygon points="54.07,48.69 53.85,48.44 53.73,49.15 53.95,49.39" fill="#6996c9" stroke="#6996c9" stroke-width="0.6" stroke-linejoin="round"/>
<polygon points="53.85,48.44 53.64,48.19 53.52,48.89 53.73,49.15" fill="#6693c5" stroke="#6693c5" stroke-width="0.6" stroke-linejoin="round"/>
<polygon points="18.03,42.07 17.82,42.43 17.71,43.13 17.92,42.77" fill="#80b0e4" stroke="#80b0e4" stroke-width="0.6" stroke-linejoin="round"/>
<polygon points="53.64,48.19 53.44,47.92 53.32,48.62 53.52,48.89" fill="#638fc1" stroke="#638fc1" stroke-width="0.6" stroke-linejoin="round"/>
<polygon points="18.25,41.69 18.03,42.07 17.92,42.77 18.13,42.40" fill="#80b0e4" stroke="#80b0e4" stroke-width="0.6" stroke-linejoin="round"/>
<polygon points="53.44,47.92 53.26,47.64 53.14,48.34 53.32,48.62" fill="#608cbd" stroke="#608cbd" stroke-width="0.6" stroke-linejoin="round"/>
<polygon points="53.26,47.64 53.08,47.35 52.96,48.05 53.14,48.34" fill="#5e8abb" stroke="#5e8abb" stroke-width="0.6" stroke-linejoin="round"/>
<polygon points="18.47,41.31 18.25,41.69 18.13,42.40 18.35,42.01" fill="#80b0e4" stroke="#80b0e4" stroke-width="0.6" stroke-linejoin="round"/>
<polygon points="53.08,47.35 52.91,47.04 52.79,47.75 52.96,48.05" fill="#5d88b9" stroke="#5d88b9" stroke-width="0.6" stroke-linejoin="round"/>
<polygon points="52.91,47.04 52.74,46.73 52.62,47.43 52.79,47.75" fill="#5b86b7" stroke="#5b86b7" stroke-width="0.6" stroke-linejoin="round"/>
<polygon points="18.69,40.91 18.47,41.31 18.35,42.01 18.57,41.61" fill="#80b0e4" stroke="#80b0e4" stroke-width="0.6" stroke-linejoin="round"/>
<polygon points="52.74,46.73 52.57,46.40 52.45,47.10 52.62,47.43" fill="#5a84b5" stroke="#5a84b5" stroke-width="0.6" stroke-linejoin="round"/>
<polygon points="18.91,40.51 18.69,40.91 18.57,41.61 18.80,41.21" fill="#7fafe4" stroke="#7fafe4" stroke-width="0.6" stroke-linejoin="round"/>
<polygon points="52.57,46.40 52.40,46.05 52.29,46.75 52.45,47.10" fill="#5883b4" stroke="#5883b4" stroke-width="0.6" stroke-linejoin="round"/>
<polygon points="19.14,40.10 18.91,40.51 18.80,41.21 19.02,40.80" fill="#7fafe3" stroke="#7fafe3" stroke-width="0.6" stroke-linejoin="round"/>
<polygon points="52.40,46.05 52.24,45.70 52.13,46.40 52.29,46.75" fill="#5782b3" stroke="#5782b3" stroke-width="0.6" stroke-linejoin="round"/>
<polygon points="52.24,45.70 52.09,45.34 51.97,46.04 52.13,46.40" fill="#5680b1" stroke="#5680b1" stroke-width="0.6" stroke-linejoin="round"/>
<polygon points="19.37,39.68 19.14,40.10 19.02,40.80 19.25,40.38" fill="#7fafe3" stroke="#7fafe3" stroke-width="0.6" stroke-linejoin="round"/>
<polygon points="52.09,45.34 51.93,44.96 51.81,45.66 51.97,46.04" fill="#557fb0" stroke="#557fb0" stroke-width="0.6" stroke-linejoin="round"/>
<polygon points="19.60,39.25 19.37,39.68 19.25,40.38 19.49,39.95" fill="#7fafe3" stroke="#7fafe3" stroke-width="0.6" stroke-linejoin="round"/>
<polygon points="51.93,44.96 51.78,44.58 51.66,45.28 51.81,45.66" fill="#547eaf" stroke="#547eaf" stroke-width="0.6" stroke-linejoin="round"/>
<polygon points="19.84,38.81 19.60,39.25 19.49,39.95 19.72,39.51" fill="#7fafe3" stroke="#7fafe3" stroke-width="0.6" stroke-linejoin="round"/>
<polygon points="51.78,44.58 51.63,44.19 51.51,44.89 51.66,45.28" fill="#547eae" stroke="#547eae" stroke-width="0.6" stroke-linejoin="round"/>
<polygon points="51.63,44.19 51.48,43.79 51.36,44.49 51.51,44.89" fill="#537dad" stroke="#537dad" stroke-width="0.6" stroke-linejoin="round"/>
<polygon points="20.07,38.37 19.84,38.81 19.72,39.51 19.95,39.07" fill="#7faee2" stroke="#7faee2" stroke-width="0.6" stroke-linejoin="round"/>
<polygon points="51.48,43.79 51.34,43.39 51.22,44.09 51.36,44.49" fill="#537dad" stroke="#537dad" stroke-width="0.6" stroke-linejoin="round"/>
<polygon points="20.30,37.92 20.07,38.37 19.95,39.07 20.18,38.62" fill="#7eaee2" stroke="#7eaee2" stroke-width="0.6" stroke-linejoin="round"/>
<polygon points="51.34,43.39 51.19,42.97 51.08,43.67 51.22,44.09" fill="#537dad" stroke="#537dad" stroke-width="0.6" stroke-linejoin="round"/>
<polygon points="20.54,37.47 20.30,37.92 20.18,38.62 20.42,38.17" fill="#7eaee2" stroke="#7eaee2" stroke-width="0.6" stroke-linejoin="round"/>
<polygon points="51.19,42.97 51.05,42.56 50.93,43.26 51.08,43.67" fill="#537dad" stroke="#537dad" stroke-width="0.6" stroke-linejoin="round"/>
<polygon points="51.05,42.56 50.91,42.13 50.80,42.83 50.93,43.26" fill="#537dad" stroke="#537dad" stroke-width="0.6" stroke-linejoin="round"/>
<polygon points="20.77,37.01 20.54,37.47 20.42,38.17 20.65,37.71" fill="#7eaee2" stroke="#7eaee2" stroke-width="0.6" stroke-linejoin="round"/>
<polygon points="50.91,42.13 50.78,41.70 50.66,42.40 50.80,42.83" fill="#537dad" stroke="#537dad" stroke-width="0.6" stroke-linejoin="round"/>
<polygon points="21.00,36.55 20.77,37.01 20.65,37.71 20.88,37.25" fill="#7eade1" stroke="#7eade1" stroke-width="0.6" stroke-linejoin="round"/>
<polygon points="50.78,41.70 50.65,41.24 50.53,41.95 50.66,42.40" fill="#537dad" stroke="#537dad" stroke-width="0.6" stroke-linejoin="round"/>
<polygon points="21.23,36.09 21.00,36.55 20.88,37.25 21.11,36.79" fill="#7eade1" stroke="#7eade1" stroke-width="0.6" stroke-linejoin="round"/>
<polygon points="50.65,41.24 50.52,40.78 50.41,41.48 50.53,41.95" fill="#537dad" stroke="#537dad" stroke-width="0.6" stroke-linejoin="round"/>
<polygon points="21.46,35.62 21.23,36.09 21.11,36.79 21.34,36.32" fill="#7dade1" stroke="#7dade1" stroke-width="0.6" stroke-linejoin="round"/>
<polygon points="50.52,40.78 50.40,40.30 50.29,41.00 50.41,41.48" fill="#537dad" stroke="#537dad" stroke-width="0.6" stroke-linejoin="round"/>
<polygon points="21.69,35.14 21.46,35.62 21.34,36.32 21.58,35.84" fill="#7dade1" stroke="#7dade1" stroke-width="0.6" stroke-linejoin="round"/>
<polygon points="50.40,40.30 50.29,39.81 50.17,40.51 50.29,41.00" fill="#537dad" stroke="#537dad" stroke-width="0.6" stroke-linejoin="round"/>
<polygon points="21.93,34.66 21.69,35.14 21.58,35.84 21.81,35.36" fill="#7dade1" stroke="#7dade1" stroke-width="0.6" stroke-linejoin="round"/>
<polygon points="50.29,39.81 50.17,39.31 50.06,40.01 50.17,40.51" fill="#537dad" stroke="#537dad" stroke-width="0.6" stroke-linejoin="round"/>
<polygon points="22.16,34.18 21.93,34.66 21.81,35.36 22.04,34.88" fill="#7dade1" stroke="#7dade1" stroke-width="0.6" stroke-linejoin="round"/>
<polygon points="50.17,39.31 50.06,38.81 49.95,39.51 50.06,40.01" fill="#537dad" stroke="#537dad" stroke-width="0.6" stroke-linejoin="round"/>
<polygon points="22.40,33.68 22.16,34.18 22.04,34.88 22.28,34.38" fill="#7dace0" stroke="#7dace0" stroke-width="0.6" stroke-linejoin="round"/>
<polygon points="50.06,38.81 49.95,38.30 49.83,39.00 49.95,39.51" fill="#537dad" stroke="#537dad" stroke-width="0.6" stroke-linejoin="round"/>
<polygon points="49.95,38.30 49.84,37.78 49.72,38.49 49.83,39.00" fill="#537dad" stroke="#537dad" stroke-width="0.6" stroke-linejoin="round"/>
<polygon points="22.63,33.18 22.40,33.68 22.28,34.38 22.51,33.88" fill="#7dace0" stroke="#7dace0" stroke-width="0.6" stroke-linejoin="round"/>
<polygon points="49.84,37.78 49.73,37.27 49.61,37.97 49.72,38.49" fill="#537dad" stroke="#537dad" stroke-width="0.6" stroke-linejoin="round"/>
<polygon points="22.87,32.68 22.63,33.18 22.51,33.88 22.75,33.38" fill="#7dace0" stroke="#7dace0" stroke-width="0.6" stroke-linejoin="round"/>
<polygon points="49.73,37.27 49.62,36.76 49.50,37.46 49.61,37.97" fill="#537dad" stroke="#537dad" stroke-width="0.6" stroke-linejoin="round"/>
<polygon points="23.11,32.16 22.87,32.68 22.75,33.38 22.99,32.86" fill="#7cace0" stroke="#7cace0" stroke-width="0.6" stroke-linejoin="round"/>
<polygon points="49.62,36.76 49.51,36.25 49.39,36.95 49.50,37.46" fill="#537dad" stroke="#537dad" stroke-width="0.6" stroke-linejoin="round"/>
<polygon points="23.34,31.64 23.11,32.16 22.99,32.86 23.23,32.34" fill="#7cace0" stroke="#7cace0" stroke-width="0.6" stroke-linejoin="round"/>
<polygon points="49.51,36.25 49.39,35.75 49.27,36.45 49.39,36.95" fill="#537dad" stroke="#537dad" stroke-width="0.6" stroke-linejoin="round"/>
<polygon points="23.58,31.11 23.34,31.64 23.23,32.34 23.47,31.81" fill="#7cabdf" stroke="#7cabdf" stroke-width="0.6" stroke-linejoin="round"/>
<polygon points="49.39,35.75 49.27,35.25 49.15,35.95 49.27,36.45" fill="#537dad" stroke="#537dad" stroke-width="0.6" stroke-linejoin="round"/>
<polygon points="23.82,30.57 23.58,31.11 23.47,31.81 23.71,31.27" fill="#7cabdf" stroke="#7cabdf" stroke-width="0.6" stroke-linejoin="round"/>
<polygon points="49.27,35.25 49.15,34.76 49.03,35.46 49.15,35.95" fill="#537dad" stroke="#537dad" stroke-width="0.6" stroke-linejoin="round"/>
<polygon points="49.15,34.76 49.02,34.28 48.90,34.98 49.03,35.46" fill="#537dad" stroke="#537dad" stroke-width="0.6" stroke-linejoin="round"/>
<polygon points="24.06,30.03 23.82,30.57 23.71,31.27 23.95,30.73" fill="#7cabdf" stroke="#7cabdf" stroke-width="0.6" stroke-linejoin="round"/>
<polygon points="49.02,34.28 48.89,33.81 48.77,34.51 48.90,34.98" fill="#537dad" stroke="#537dad" stroke-width="0.6" stroke-linejoin="round"/>
<polygon points="24.31,29.47 24.06,30.03 23.95,30.73 24.19,30.17" fill="#7babdf" stroke="#7babdf" stroke-width="0.6" stroke-linejoin="round"/>
<polygon points="48.89,33.81 48.75,33.34 48.63,34.04 48.77,34.51" fill="#537dad" stroke="#537dad" stroke-width="0.6" stroke-linejoin="round"/>
<polygon points="24.55,28.91 24.31,29.47 24.19,30.17 24.43,29.61" fill="#7babde" stroke="#7babde" stroke-width="0.6" stroke-linejoin="round"/>
<polygon points="48.75,33.34 48.62,32.88 48.50,33.58 48.63,34.04" fill="#537dad" stroke="#537dad" stroke-width="0.6" stroke-linejoin="round"/>
<polygon points="48.62,32.88 48.48,32.41 48.36,33.11 48.50,33.58" fill="#537dad" stroke="#537dad" stroke-width="0.6" stroke-linejoin="round"/>
<polygon points="24.79,28.33 24.55,28.91 24.43,29.61 24.67,29.03" fill="#7baade" stroke="#7baade" stroke-width="0.6" stroke-linejoin="round"/>
<polygon points="48.48,32.41 48.35,31.95 48.23,32.65 48.36,33.11" fill="#537dad" stroke="#537dad" stroke-width="0.6" stroke-linejoin="round"/>
<polygon points="25.03,27.75 24.79,28.33 24.67,29.03 24.92,28.45" fill="#7baade" stroke="#7baade" stroke-width="0.6" stroke-linejoin="round"/>
<polygon points="48.35,31.95 48.21,31.49 48.09,32.19 48.23,32.65" fill="#537dad" stroke="#537dad" stroke-width="0.6" stroke-linejoin="round"/>
<polygon points="25.28,27.15 25.03,27.75 24.92,28.45 25.16,27.85" fill="#7aaadd" stroke="#7aaadd" stroke-width="0.6" stroke-linejoin="round"/>
<polygon points="48.21,31.49 48.07,31.03 47.95,31.73 48.09,32.19" fill="#537dad" stroke="#537dad" stroke-width="0.6" stroke-linejoin="round"/>
<polygon points="48.07,31.03 47.92,30.58 47.81,31.28 47.95,31.73" fill="#537dad" stroke="#537dad" stroke-width="0.6" stroke-linejoin="round"/>
<polygon points="25.53,26.53 25.28,27.15 25.16,27.85 25.41,27.23" fill="#7aa9dd" stroke="#7aa9dd" stroke-width="0.6" stroke-linejoin="round"/>
<polygon points="47.92,30.58 47.78,30.12 47.66,30.82 47.81,31.28" fill="#537dad" stroke="#537dad" stroke-width="0.6" stroke-linejoin="round"/>
<polygon points="25.77,25.90 25.53,26.53 25.41,27.23 25.65,26.60" fill="#7aa9dd" stroke="#7aa9dd" stroke-width="0.6" stroke-linejoin="round"/>
<polygon points="47.78,30.12 47.63,29.67 47.52,30.38 47.66,30.82" fill="#537dad" stroke="#537dad" stroke-width="0.6" stroke-linejoin="round"/>
<polygon points="47.63,29.67 47.49,29.23 47.37,29.93 47.52,30.38" fill="#537dad" stroke="#537dad" stroke-width="0.6" stroke-linejoin="round"/>
<polygon points="26.02,25.27 25.77,25.90 25.65,26.60 25.90,25.97" fill="#7aa9dd" stroke="#7aa9dd" stroke-width="0.6" stroke-linejoin="round"/>
<polygon points="47.49,29.23 47.33,28.79 47.22,29.49 47.37,29.93" fill="#537dad" stroke="#537dad" stroke-width="0.6" stroke-linejoin="round"/>
<polygon points="47.33,28.79 47.18,28.35 47.06,29.05 47.22,29.49" fill="#537dad" stroke="#537dad" stroke-width="0.6" stroke-linejoin="round"/>
<polygon points="26.27,24.62 26.02,25.27 25.90,25.97 26.15,25.32" fill="#7aa9dc" stroke="#7aa9dc" stroke-width="0.6" stroke-linejoin="round"/>
<polygon points="47.18,28.35 47.02,27.91 46.91,28.61 47.06,29.05" fill="#537dad" stroke="#537dad" stroke-width="0.6" stroke-linejoin="round"/>
<polygon points="26.52,23.97 26.27,24.62 26.15,25.32 26.40,24.67" fill="#79a9dc" stroke="#79a9dc" stroke-width="0.6" stroke-linejoin="round"/>
<polygon points="47.02,27.91 46.86,27.48 46.75,28.18 46.91,28.61" fill="#537dad" stroke="#537dad" stroke-width="0.6" stroke-linejoin="round"/>
<polygon points="46.86,27.48 46.70,27.05 46.58,27.75 46.75,28.18" fill="#537dae" stroke="#537dae" stroke-width="0.6" stroke-linejoin="round"/>
<polygon points="26.77,23.31 26.52,23.97 26.40,24.67 26.65,24.01" fill="#79a8dc" stroke="#79a8dc" stroke-width="0.6" stroke-linejoin="round"/>
<polygon points="46.70,27.05 46.53,26.62 46.42,27.33 46.58,27.75" fill="#547eaf" stroke="#547eaf" stroke-width="0.6" stroke-linejoin="round"/>
<polygon points="46.53,26.62 46.37,26.20 46.25,26.90 46.42,27.33" fill="#547faf" stroke="#547faf" stroke-width="0.6" stroke-linejoin="round"/>
<polygon points="56.69,51.54 56.57,51.44 56.43,51.33 56.26,51.21 56.07,51.08 55.86,50.94 55.64,50.78 55.41,50.62 55.17,50.44 54.92,50.25 54.67,50.05 54.43,49.84 54.19,49.62 53.95,49.39 53.73,49.15 53.52,48.89 53.32,48.62 53.14,48.34 52.96,48.05 52.79,47.75 52.62,47.43 52.45,47.10 52.29,46.75 52.13,46.40 51.97,46.04 51.81,45.66 51.66,45.28 51.51,44.89 51.36,44.49 51.22,44.09 51.08,43.67 50.93,43.26 50.80,42.83 50.66,42.40 50.53,41.95 50.41,41.48 50.29,41.00 50.17,40.51 50.06,40.01 49.95,39.51 49.83,39.00 49.72,38.49 49.61,37.97 49.50,37.46 49.39,36.95 49.27,36.45 49.15,35.95 49.03,35.46 48.90,34.98 48.77,34.51 48.63,34.04 48.50,33.58 48.36,33.11 48.23,32.65 48.09,32.19 47.95,31.73 47.81,31.28 47.66,30.82 47.52,30.38 47.37,29.93 47.22,29.49 47.06,29.05 46.91,28.61 46.75,28.18 46.58,27.75 46.42,27.33 46.25,26.90 46.08,26.49 45.90,26.07 45.73,25.66 45.55,25.26 45.37,24.85 45.19,24.45 45.00,24.06 44.81,23.66 44.62,23.27 44.43,22.88 44.23,22.49 44.04,22.10 43.84,21.72 43.63,21.34 43.43,20.96 43.22,20.57 43.01,20.19 42.79,19.81 42.57,19.44 42.35,19.06 42.13,18.69 41.91,18.32 41.68,17.96 41.45,17.59 41.22,17.24 40.99,16.89 40.76,16.54 40.52,16.20 40.29,15.87 40.05,15.54 39.81,15.21 39.57,14.89 39.32,14.57 39.06,14.26 38.80,13.94 38.54,13.64 38.28,13.33 38.02,13.04 37.76,12.75 37.51,12.46 37.25,12.19 37.00,11.92 36.75,11.67 36.51,11.43 36.28,11.19 36.05,10.97 35.83,10.74 35.62,10.49 35.42,10.23 35.22,9.95 35.03,9.67 34.85,9.40 34.67,9.15 34.48,8.91 34.30,8.71 34.11,8.54 33.93,8.41 33.73,8.33 33.53,8.31 33.33,8.36 33.11,8.48 32.89,8.68 32.65,8.97 32.41,9.35 32.16,9.80 31.90,10.33 31.64,10.91 31.38,11.54 31.11,12.22 30.84,12.93 30.56,13.67 30.29,14.42 30.01,15.18 29.74,15.93 29.47,16.68 29.20,17.40 28.94,18.10 28.68,18.75 28.42,19.39 28.16,20.04 27.91,20.70 27.66,21.36 27.40,22.02 27.15,22.68 26.90,23.35 26.65,24.01 26.40,24.67 26.15,25.32 25.90,25.97 25.65,26.60 25.41,27.23 25.16,27.85 24.92,28.45 24.67,29.03 24.43,29.61 24.19,30.17 23.95,30.73 23.71,31.27 23.47,31.81 23.23,32.34 22.99,32.86 22.75,33.38 22.51,33.88 22.28,34.38 22.04,34.88 21.81,35.36 21.58,35.84 21.34,36.32 21.11,36.79 20.88,37.25 20.65,37.71 20.42,38.17 20.18,38.62 19.95,39.07 19.72,39.51 19.49,39.95 19.25,40.38 19.02,40.80 18.80,41.21 18.57,41.61 18.35,42.01 18.13,42.40 17.92,42.77 17.71,43.13 17.50,43.49 17.30,43.83 17.11,44.15 16.92,44.47 16.74,44.78 16.57,45.07 16.40,45.35 16.24,45.63 16.08,45.89 15.92,46.15 15.76,46.40 15.60,46.64 15.44,46.87 15.27,47.09 15.10,47.31 14.93,47.52 14.75,47.73 14.56,47.93 14.37,48.12 14.17,48.31 13.98,48.48 13.78,48.65 13.58,48.81 13.37,48.96 13.16,49.11 12.95,49.25 12.74,49.38 12.53,49.51 12.31,49.63 12.09,49.74 11.87,49.86 11.65,49.97 11.42,50.07 11.19,50.17 10.95,50.27 10.69,50.37 10.42,50.45 10.14,50.54 9.85,50.61 9.56,50.68 9.27,50.75 8.98,50.81 8.70,50.87 8.42,50.93 8.16,50.98 7.92,51.02 7.70,51.07 7.50,51.11 7.33,51.14 7.19,51.18" fill="#72a0d3" stroke="#72a0d3" stroke-width="0.6" stroke-linejoin="round"/>
<polygon points="27.02,22.65 26.77,23.31 26.65,24.01 26.90,23.35" fill="#79a8dc" stroke="#79a8dc" stroke-width="0.6" stroke-linejoin="round"/>
<polygon points="46.37,26.20 46.20,25.79 46.08,26.49 46.25,26.90" fill="#557fb0" stroke="#557fb0" stroke-width="0.6" stroke-linejoin="round"/>
<polygon points="46.20,25.79 46.02,25.37 45.90,26.07 46.08,26.49" fill="#5580b0" stroke="#5580b0" stroke-width="0.6" stroke-linejoin="round"/>
<polygon points="27.27,21.98 27.02,22.65 26.90,23.35 27.15,22.68" fill="#79a8dc" stroke="#79a8dc" stroke-width="0.6" stroke-linejoin="round"/>
<polygon points="46.02,25.37 45.85,24.96 45.73,25.66 45.90,26.07" fill="#5680b1" stroke="#5680b1" stroke-width="0.6" stroke-linejoin="round"/>
<polygon points="45.85,24.96 45.67,24.56 45.55,25.26 45.73,25.66" fill="#5681b2" stroke="#5681b2" stroke-width="0.6" stroke-linejoin="round"/>
<polygon points="27.52,21.32 27.27,21.98 27.15,22.68 27.40,22.02" fill="#79a8dc" stroke="#79a8dc" stroke-width="0.6" stroke-linejoin="round"/>
<polygon points="45.67,24.56 45.49,24.15 45.37,24.85 45.55,25.26" fill="#5781b2" stroke="#5781b2" stroke-width="0.6" stroke-linejoin="round"/>
<polygon points="27.77,20.66 27.52,21.32 27.40,22.02 27.66,21.36" fill="#79a9dc" stroke="#79a9dc" stroke-width="0.6" stroke-linejoin="round"/>
<polygon points="45.49,24.15 45.30,23.75 45.19,24.45 45.37,24.85" fill="#5782b3" stroke="#5782b3" stroke-width="0.6" stroke-linejoin="round"/>
<polygon points="45.30,23.75 45.12,23.36 45.00,24.06 45.19,24.45" fill="#5882b3" stroke="#5882b3" stroke-width="0.6" stroke-linejoin="round"/>
<polygon points="28.03,20.00 27.77,20.66 27.66,21.36 27.91,20.70" fill="#7aa9dc" stroke="#7aa9dc" stroke-width="0.6" stroke-linejoin="round"/>
<polygon points="45.12,23.36 44.93,22.96 44.81,23.66 45.00,24.06" fill="#5883b4" stroke="#5883b4" stroke-width="0.6" stroke-linejoin="round"/>
<polygon points="44.93,22.96 44.74,22.57 44.62,23.27 44.81,23.66" fill="#5983b4" stroke="#5983b4" stroke-width="0.6" stroke-linejoin="round"/>
<polygon points="28.28,19.34 28.03,20.00 27.91,20.70 28.16,20.04" fill="#7aa9dd" stroke="#7aa9dd" stroke-width="0.6" stroke-linejoin="round"/>
<polygon points="44.74,22.57 44.55,22.18 44.43,22.88 44.62,23.27" fill="#5984b5" stroke="#5984b5" stroke-width="0.6" stroke-linejoin="round"/>
<polygon points="44.55,22.18 44.35,21.79 44.23,22.49 44.43,22.88" fill="#5a84b5" stroke="#5a84b5" stroke-width="0.6" stroke-linejoin="round"/>
<polygon points="28.54,18.69 28.28,19.34 28.16,20.04 28.42,19.39" fill="#7aa9dd" stroke="#7aa9dd" stroke-width="0.6" stroke-linejoin="round"/>
<polygon points="44.35,21.79 44.15,21.40 44.04,22.10 44.23,22.49" fill="#5a85b6" stroke="#5a85b6" stroke-width="0.6" stroke-linejoin="round"/>
<polygon points="44.15,21.40 43.95,21.02 43.84,21.72 44.04,22.10" fill="#5a85b6" stroke="#5a85b6" stroke-width="0.6" stroke-linejoin="round"/>
<polygon points="28.79,18.05 28.54,18.69 28.42,19.39 28.68,18.75" fill="#7aa9dd" stroke="#7aa9dd" stroke-width="0.6" stroke-linejoin="round"/>
<polygon points="43.95,21.02 43.75,20.64 43.63,21.34 43.84,21.72" fill="#5b86b7" stroke="#5b86b7" stroke-width="0.6" stroke-linejoin="round"/>
<polygon points="43.75,20.64 43.55,20.25 43.43,20.96 43.63,21.34" fill="#5b86b7" stroke="#5b86b7" stroke-width="0.6" stroke-linejoin="round"/>
<polygon points="29.05,17.40 28.79,18.05 28.68,18.75 28.94,18.10" fill="#7aa9dd" stroke="#7aa9dd" stroke-width="0.6" stroke-linejoin="round"/>
<polygon points="43.55,20.25 43.34,19.87 43.22,20.57 43.43,20.96" fill="#5c87b8" stroke="#5c87b8" stroke-width="0.6" stroke-linejoin="round"/>
<polygon points="43.34,19.87 43.12,19.49 43.01,20.19 43.22,20.57" fill="#5c87b8" stroke="#5c87b8" stroke-width="0.6" stroke-linejoin="round"/>
<polygon points="29.32,16.70 29.05,17.40 28.94,18.10 29.20,17.40" fill="#79a8dc" stroke="#79a8dc" stroke-width="0.6" stroke-linejoin="round"/>
<polygon points="43.12,19.49 42.91,19.11 42.79,19.81 43.01,20.19" fill="#5c87b9" stroke="#5c87b9" stroke-width="0.6" stroke-linejoin="round"/>
<polygon points="42.91,19.11 42.69,18.74 42.57,19.44 42.79,19.81" fill="#5d88b9" stroke="#5d88b9" stroke-width="0.6" stroke-linejoin="round"/>
<polygon points="42.69,18.74 42.47,18.36 42.35,19.06 42.57,19.44" fill="#5d88ba" stroke="#5d88ba" stroke-width="0.6" stroke-linejoin="round"/>
<polygon points="29.59,15.98 29.32,16.70 29.20,17.40 29.47,16.68" fill="#79a8dc" stroke="#79a8dc" stroke-width="0.6" stroke-linejoin="round"/>
<polygon points="42.47,18.36 42.25,17.99 42.13,18.69 42.35,19.06" fill="#5e89ba" stroke="#5e89ba" stroke-width="0.6" stroke-linejoin="round"/>
<polygon points="42.25,17.99 42.03,17.62 41.91,18.32 42.13,18.69" fill="#5e8abb" stroke="#5e8abb" stroke-width="0.6" stroke-linejoin="round"/>
<polygon points="29.86,15.23 29.59,15.98 29.47,16.68 29.74,15.93" fill="#79a8db" stroke="#79a8db" stroke-width="0.6" stroke-linejoin="round"/>
<polygon points="42.03,17.62 41.80,17.26 41.68,17.96 41.91,18.32" fill="#5f8abc" stroke="#5f8abc" stroke-width="0.6" stroke-linejoin="round"/>
<polygon points="41.80,17.26 41.57,16.89 41.45,17.59 41.68,17.96" fill="#5f8bbc" stroke="#5f8bbc" stroke-width="0.6" stroke-linejoin="round"/>
<polygon points="30.13,14.48 29.86,15.23 29.74,15.93 30.01,15.18" fill="#79a8db" stroke="#79a8db" stroke-width="0.6" stroke-linejoin="round"/>
<polygon points="41.57,16.89 41.34,16.54 41.22,17.24 41.45,17.59" fill="#608bbd" stroke="#608bbd" stroke-width="0.6" stroke-linejoin="round"/>
<polygon points="41.34,16.54 41.11,16.19 40.99,16.89 41.22,17.24" fill="#608cbe" stroke="#608cbe" stroke-width="0.6" stroke-linejoin="round"/>
<polygon points="41.11,16.19 40.88,15.84 40.76,16.54 40.99,16.89" fill="#618dbe" stroke="#618dbe" stroke-width="0.6" stroke-linejoin="round"/>
<polygon points="30.40,13.72 30.13,14.48 30.01,15.18 30.29,14.42" fill="#79a8db" stroke="#79a8db" stroke-width="0.6" stroke-linejoin="round"/>
<polygon points="40.88,15.84 40.64,15.50 40.52,16.20 40.76,16.54" fill="#618dbf" stroke="#618dbf" stroke-width="0.6" stroke-linejoin="round"/>
<polygon points="40.64,15.50 40.41,15.16 40.29,15.87 40.52,16.20" fill="#628ec0" stroke="#628ec0" stroke-width="0.6" stroke-linejoin="round"/>
<polygon points="40.41,15.16 40.17,14.84 40.05,15.54 40.29,15.87" fill="#638fc1" stroke="#638fc1" stroke-width="0.6" stroke-linejoin="round"/>
<polygon points="30.68,12.97 30.40,13.72 30.29,14.42 30.56,13.67" fill="#79a8dc" stroke="#79a8dc" stroke-width="0.6" stroke-linejoin="round"/>
<polygon points="40.17,14.84 39.93,14.51 39.81,15.21 40.05,15.54" fill="#6390c1" stroke="#6390c1" stroke-width="0.6" stroke-linejoin="round"/>
<polygon points="39.93,14.51 39.68,14.19 39.57,14.89 39.81,15.21" fill="#6490c2" stroke="#6490c2" stroke-width="0.6" stroke-linejoin="round"/>
<polygon points="30.95,12.23 30.68,12.97 30.56,13.67 30.84,12.93" fill="#79a8dc" stroke="#79a8dc" stroke-width="0.6" stroke-linejoin="round"/>
<polygon points="39.68,14.19 39.43,13.87 39.32,14.57 39.57,14.89" fill="#6591c3" stroke="#6591c3" stroke-width="0.6" stroke-linejoin="round"/>
<polygon points="39.43,13.87 39.18,13.56 39.06,14.26 39.32,14.57" fill="#6692c4" stroke="#6692c4" stroke-width="0.6" stroke-linejoin="round"/>
<polygon points="39.18,13.56 38.92,13.24 38.80,13.94 39.06,14.26" fill="#6693c5" stroke="#6693c5" stroke-width="0.6" stroke-linejoin="round"/>
<polygon points="31.23,11.52 30.95,12.23 30.84,12.93 31.11,12.22" fill="#7aa9dc" stroke="#7aa9dc" stroke-width="0.6" stroke-linejoin="round"/>
<polygon points="38.92,13.24 38.66,12.93 38.54,13.64 38.80,13.94" fill="#6793c6" stroke="#6793c6" stroke-width="0.6" stroke-linejoin="round"/>
<polygon points="38.66,12.93 38.40,12.63 38.28,13.33 38.54,13.64" fill="#6794c6" stroke="#6794c6" stroke-width="0.6" stroke-linejoin="round"/>
<polygon points="38.40,12.63 38.14,12.33 38.02,13.04 38.28,13.33" fill="#6895c7" stroke="#6895c7" stroke-width="0.6" stroke-linejoin="round"/>
<polygon points="31.49,10.84 31.23,11.52 31.11,12.22 31.38,11.54" fill="#7aa9dd" stroke="#7aa9dd" stroke-width="0.6" stroke-linejoin="round"/>
<polygon points="38.14,12.33 37.88,12.05 37.76,12.75 38.02,13.04" fill="#6995c8" stroke="#6995c8" stroke-width="0.6" stroke-linejoin="round"/>
<polygon points="37.88,12.05 37.62,11.76 37.51,12.46 37.76,12.75" fill="#6996c8" stroke="#6996c8" stroke-width="0.6" stroke-linejoin="round"/>
<polygon points="37.62,11.76 37.37,11.49 37.25,12.19 37.51,12.46" fill="#6a97c9" stroke="#6a97c9" stroke-width="0.6" stroke-linejoin="round"/>
<polygon points="31.76,10.21 31.49,10.84 31.38,11.54 31.64,10.91" fill="#7baade" stroke="#7baade" stroke-width="0.6" stroke-linejoin="round"/>
<polygon points="37.37,11.49 37.12,11.22 37.00,11.92 37.25,12.19" fill="#6a97ca" stroke="#6a97ca" stroke-width="0.6" stroke-linejoin="round"/>
<polygon points="37.12,11.22 36.87,10.97 36.75,11.67 37.00,11.92" fill="#6b98ca" stroke="#6b98ca" stroke-width="0.6" stroke-linejoin="round"/>
<polygon points="36.87,10.97 36.63,10.72 36.51,11.43 36.75,11.67" fill="#6b99cb" stroke="#6b99cb" stroke-width="0.6" stroke-linejoin="round"/>
<polygon points="32.02,9.62 31.76,10.21 31.64,10.91 31.90,10.33" fill="#7cabdf" stroke="#7cabdf" stroke-width="0.6" stroke-linejoin="round"/>
<polygon points="36.63,10.72 36.39,10.49 36.28,11.19 36.51,11.43" fill="#6c99cc" stroke="#6c99cc" stroke-width="0.6" stroke-linejoin="round"/>
<polygon points="36.39,10.49 36.17,10.27 36.05,10.97 36.28,11.19" fill="#6d9acc" stroke="#6d9acc" stroke-width="0.6" stroke-linejoin="round"/>
<polygon points="36.17,10.27 35.95,10.04 35.83,10.74 36.05,10.97" fill="#6a98ca" stroke="#6a98ca" stroke-width="0.6" stroke-linejoin="round"/>
<polygon points="32.28,9.10 32.02,9.62 31.90,10.33 32.16,9.80" fill="#7dade1" stroke="#7dade1" stroke-width="0.6" stroke-linejoin="round"/>
<polygon points="35.95,10.04 35.74,9.79 35.62,10.49 35.83,10.74" fill="#6793c5" stroke="#6793c5" stroke-width="0.6" stroke-linejoin="round"/>
<polygon points="35.74,9.79 35.54,9.52 35.42,10.23 35.62,10.49" fill="#6490c2" stroke="#6490c2" stroke-width="0.6" stroke-linejoin="round"/>
<polygon points="35.54,9.52 35.34,9.25 35.22,9.95 35.42,10.23" fill="#628ec0" stroke="#628ec0" stroke-width="0.6" stroke-linejoin="round"/>
<polygon points="32.53,8.65 32.28,9.10 32.16,9.80 32.41,9.35" fill="#7fafe3" stroke="#7fafe3" stroke-width="0.6" stroke-linejoin="round"/>
<polygon points="35.34,9.25 35.15,8.97 35.03,9.67 35.22,9.95" fill="#618dbf" stroke="#618dbf" stroke-width="0.6" stroke-linejoin="round"/>
<polygon points="32.77,8.27 32.53,8.65 32.41,9.35 32.65,8.97" fill="#82b2e6" stroke="#82b2e6" stroke-width="0.6" stroke-linejoin="round"/>
<polygon points="35.15,8.97 34.97,8.70 34.85,9.40 35.03,9.67" fill="#618dbf" stroke="#618dbf" stroke-width="0.6" stroke-linejoin="round"/>
<polygon points="34.97,8.70 34.78,8.45 34.67,9.15 34.85,9.40" fill="#638ec0" stroke="#638ec0" stroke-width="0.6" stroke-linejoin="round"/>
<polygon points="33.01,7.98 32.77,8.27 32.65,8.97 32.89,8.68" fill="#85b6eb" stroke="#85b6eb" stroke-width="0.6" stroke-linejoin="round"/>
<polygon points="34.78,8.45 34.60,8.21 34.48,8.91 34.67,9.15" fill="#6591c3" stroke="#6591c3" stroke-width="0.6" stroke-linejoin="round"/>
<polygon points="33.23,7.78 33.01,7.98 32.89,8.68 33.11,8.48" fill="#8abbf0" stroke="#8abbf0" stroke-width="0.6" stroke-linejoin="round"/>
<polygon points="34.60,8.21 34.42,8.00 34.30,8.71 34.48,8.91" fill="#6895c7" stroke="#6895c7" stroke-width="0.6" stroke-linejoin="round"/>
<polygon points="34.42,8.00 34.23,7.83 34.11,8.54 34.30,8.71" fill="#6e9bce" stroke="#6e9bce" stroke-width="0.6" stroke-linejoin="round"/>
<polygon points="33.45,7.66 33.23,7.78 33.11,8.48 33.33,8.36" fill="#8dbff4" stroke="#8dbff4" stroke-width="0.6" stroke-linejoin="round"/>
<polygon points="34.23,7.83 34.04,7.71 33.93,8.41 34.11,8.54" fill="#76a4d7" stroke="#76a4d7" stroke-width="0.6" stroke-linejoin="round"/>
<polygon points="33.65,7.61 33.45,7.66 33.33,8.36 33.53,8.31" fill="#8ec0f5" stroke="#8ec0f5" stroke-width="0.6" stroke-linejoin="round"/>
<polygon points="34.04,7.71 33.85,7.63 33.73,8.33 33.93,8.41" fill="#7fafe3" stroke="#7fafe3" stroke-width="0.6" stroke-linejoin="round"/>
<polygon points="33.85,7.63 33.65,7.61 33.53,8.31 33.73,8.33" fill="#89baef" stroke="#89baef" stroke-width="0.6" stroke-linejoin="round"/>
<polygon points="5.00,56.00 58.09,56.39 54.44,53.01 8.94,52.68" fill="#87b8ec" stroke="#87b8ec" stroke-width="0.6" stroke-linejoin="round"/>
</svg>
